<?xml version="1.0" encoding="utf-8"?><svg xmlns="http://www.w3.org/2000/svg" xmlns:xlink="http://www.w3.org/1999/xlink" width="1920" height="969" preserveAspectRatio="xMidYMid" viewBox="0 0 1920 969" style="z-index:1;margin-right:-2px;display:block;background-color:rgb(241, 242, 243);animation-play-state:paused" ><g transform="translate(960,484.5) scale(1,1) translate(-960,-484.5)" style="transform:matrix(1, 0, 0, 1, 0, 0);animation-play-state:paused" ><linearGradient id="lg-0.27122438137220284" x1="0" x2="1" y1="0" y2="0" style="animation-play-state:paused" ><stop stop-color="#6477a2" offset="0" style="animation-play-state:paused" ></stop>

  
<stop stop-color="#8c8dac" offset="1" style="animation-play-state:paused" ></stop></linearGradient>
<path d="M 0 0 L 0 809.646 Q 192 837.284 384 823.094 T 768 665.251 T 1152 595.778 T 1536 465.543 T 1920 449.781 L 1920 0 Z" fill="url(#lg-0.27122438137220284)" opacity="0.4" style="opacity:0.4;animation-play-state:paused" ></path>
<path d="M 0 0 L 0 843.621 Q 192 784.541 384 753.927 T 768 697.015 T 1152 619.602 T 1536 447.822 T 1920 374.611 L 1920 0 Z" fill="url(#lg-0.27122438137220284)" opacity="0.4" style="opacity:0.4;animation-play-state:paused" ></path>
<path d="M 0 0 L 0 922.207 Q 192 855.687 384 814.317 T 768 658.64 T 1152 565.878 T 1536 402.478 T 1920 305.478 L 1920 0 Z" fill="url(#lg-0.27122438137220284)" opacity="0.4" style="opacity:0.4;animation-play-state:paused" ></path>
<path d="M 0 0 L 0 881.329 Q 192 782.4 384 745.454 T 768 640.246 T 1152 605.954 T 1536 440.82 T 1920 354.628 L 1920 0 Z" fill="url(#lg-0.27122438137220284)" opacity="0.4" style="opacity:0.4;animation-play-state:paused" ></path>
<path d="M 0 0 L 0 865.786 Q 192 817.181 384 791.504 T 768 723.702 T 1152 602.064 T 1536 459.092 T 1920 464.385 L 1920 0 Z" fill="url(#lg-0.27122438137220284)" opacity="0.4" style="opacity:0.4;animation-play-state:paused" ></path></g></svg>